<svg width="16" height="16" viewBox="0 0 16 16" fill="none" xmlns="http://www.w3.org/2000/svg">
<mask id="mask0_4462_18839" style="mask-type:luminance" maskUnits="userSpaceOnUse" x="0" y="0" width="16" height="16">
<path d="M16 0H0V16H16V0Z" fill="white"/>
</mask>
<g mask="url(#mask0_4462_18839)">
<path d="M1.96484 7.24833C1.96484 10.5831 4.6683 13.2862 8.00274 13.2862C11.3375 13.2862 14.0407 10.5831 14.0407 7.24833C14.0407 3.91389 11.3375 1.21045 8.00274 1.21045C4.6683 1.21045 1.96484 3.91389 1.96484 7.24833Z" fill="#FFCC4D"/>
<path d="M7.79688 8.15876C7.79688 8.15876 8.78408 7.22088 9.75296 8.90552" stroke="#664500" stroke-width="0.9057" stroke-miterlimit="10" stroke-linecap="round"/>
<path d="M5.85938 4.44072C5.85938 4.44072 7.10836 3.81084 8.5736 4.4655" stroke="#664500" stroke-width="0.9057" stroke-miterlimit="10" stroke-linecap="round"/>
<path d="M9.90234 3.19653C9.90234 3.19653 11.1829 2.63373 12.6114 3.36511" stroke="#664500" stroke-width="0.9057" stroke-miterlimit="10" stroke-linecap="round"/>
<path d="M7.86495 4.97272C7.86495 5.49386 7.52683 5.91614 7.11021 5.91614C6.69359 5.91614 6.35547 5.49386 6.35547 4.97272C6.35547 4.45194 6.69359 4.0293 7.11021 4.0293C7.52683 4.0293 7.86495 4.45194 7.86495 4.97272Z" fill="#664500"/>
<path d="M11.861 5.34723C11.861 5.86837 11.5229 6.29065 11.1063 6.29065C10.6897 6.29065 10.3516 5.86837 10.3516 5.34723C10.3516 4.82645 10.6897 4.40381 11.1063 4.40381C11.5229 4.40381 11.861 4.82645 11.861 5.34723Z" fill="#664500"/>
<path d="M8.32956 15.0163C8.32956 15.0163 8.80694 14.8612 8.86882 14.5061C8.93412 14.1396 8.63334 14.0657 8.63334 14.0657C8.63334 14.0657 9.02618 13.9872 9.07562 13.5464C9.12204 13.1313 8.75032 13.0321 8.75032 13.0321C8.75032 13.0321 9.11638 12.8811 9.13374 12.4513C9.14808 12.0894 8.75826 11.9124 8.75826 11.9124C8.75826 11.9124 10.085 11.5499 10.2801 11.5046C10.4748 11.459 10.7786 11.2722 10.6839 10.865C10.5899 10.4574 10.2295 10.4431 10.0431 10.4865C9.85667 10.5303 8.07258 10.98 7.25896 11.1694C7.17216 11.1894 6.76538 11.2834 6.71594 11.2954C6.51216 11.3434 6.4197 11.2535 6.5631 11.1022C6.75518 10.8999 6.87746 10.6761 6.92046 10.3048C6.96538 9.91387 6.83292 9.43159 6.75706 9.24479C6.61592 8.89723 6.37782 8.62255 6.1027 8.52819C5.67326 8.38101 5.36834 8.64929 5.52082 9.11725C5.74874 9.81727 5.59968 10.3909 5.20646 10.7373C4.28228 11.5513 3.85208 12.1317 4.1385 13.3687C4.45058 14.7178 5.79024 15.5861 7.13934 15.2736C7.21066 15.2578 8.32956 15.0163 8.32956 15.0163Z" fill="#F4900B"/>
</g>
</svg>

