<svg width="36" height="36" viewBox="0 0 36 36" fill="none" xmlns="http://www.w3.org/2000/svg">
<path d="M13.5 24C14.775 24.945 16.3275 25.5 18 25.5C19.6725 25.5 21.225 24.945 22.5 24" stroke="#F56E0F" stroke-width="2.25" stroke-linecap="round"/>
<path d="M23.25 15.75C23.25 16.2439 23.1152 16.6571 22.9366 16.925C22.7546 17.198 22.5854 17.25 22.5 17.25C22.4146 17.25 22.2454 17.198 22.0634 16.925C21.8848 16.6571 21.75 16.2439 21.75 15.75C21.75 15.2561 21.8848 14.8429 22.0634 14.575C22.2454 14.302 22.4146 14.25 22.5 14.25C22.5854 14.25 22.7546 14.302 22.9366 14.575C23.1152 14.8429 23.25 15.2561 23.25 15.75Z" fill="#F77F2B" stroke="#F56E0F" stroke-width="1.5"/>
<path d="M14.25 15.75C14.25 16.2439 14.1152 16.6571 13.9366 16.925C13.7546 17.198 13.5854 17.25 13.5 17.25C13.4146 17.25 13.2454 17.198 13.0634 16.925C12.8848 16.6571 12.75 16.2439 12.75 15.75C12.75 15.2561 12.8848 14.8429 13.0634 14.575C13.2454 14.302 13.4146 14.25 13.5 14.25C13.5854 14.25 13.7546 14.302 13.9366 14.575C14.1152 14.8429 14.25 15.2561 14.25 15.75Z" fill="#F77F2B" stroke="#F56E0F" stroke-width="1.5"/>
<path d="M33 21C33 26.6565 33 29.4855 31.242 31.242C29.484 32.9985 26.6565 33 21 33M15 33C9.3435 33 6.5145 33 4.758 31.242C3.0015 29.484 3 26.6565 3 21M15 3C9.3435 3 6.5145 3 4.758 4.758C3.0015 6.516 3 9.3435 3 15M21 3C26.6565 3 29.4855 3 31.242 4.758C32.9985 6.516 33 9.3435 33 15" stroke="#F56E0F" stroke-width="2.5" stroke-linecap="round"/>
<path d="M13.5 24C14.775 24.945 16.3275 25.5 18 25.5C19.6725 25.5 21.225 24.945 22.5 24" stroke="#F56E0F" stroke-width="2.25" stroke-linecap="round"/>
<path d="M23.25 15.75C23.25 16.2439 23.1152 16.6571 22.9366 16.925C22.7546 17.198 22.5854 17.25 22.5 17.25C22.4146 17.25 22.2454 17.198 22.0634 16.925C21.8848 16.6571 21.75 16.2439 21.75 15.75C21.75 15.2561 21.8848 14.8429 22.0634 14.575C22.2454 14.302 22.4146 14.25 22.5 14.25C22.5854 14.25 22.7546 14.302 22.9366 14.575C23.1152 14.8429 23.25 15.2561 23.25 15.75Z" fill="#F77F2B" stroke="#F56E0F" stroke-width="1.5"/>
<path d="M14.25 15.75C14.25 16.2439 14.1152 16.6571 13.9366 16.925C13.7546 17.198 13.5854 17.25 13.5 17.25C13.4146 17.25 13.2454 17.198 13.0634 16.925C12.8848 16.6571 12.75 16.2439 12.75 15.75C12.75 15.2561 12.8848 14.8429 13.0634 14.575C13.2454 14.302 13.4146 14.25 13.5 14.25C13.5854 14.25 13.7546 14.302 13.9366 14.575C14.1152 14.8429 14.25 15.2561 14.25 15.75Z" fill="#F77F2B" stroke="#F56E0F" stroke-width="1.5"/>
<path d="M33 21C33 26.6565 33 29.4855 31.242 31.242C29.484 32.9985 26.6565 33 21 33M15 33C9.3435 33 6.5145 33 4.758 31.242C3.0015 29.484 3 26.6565 3 21M15 3C9.3435 3 6.5145 3 4.758 4.758C3.0015 6.516 3 9.3435 3 15M21 3C26.6565 3 29.4855 3 31.242 4.758C32.9985 6.516 33 9.3435 33 15" stroke="#F56E0F" stroke-width="2.5" stroke-linecap="round"/>
</svg>
