<svg width="36" height="36" viewBox="0 0 36 36" fill="none" xmlns="http://www.w3.org/2000/svg">
<path d="M5.93087 21.4671C4.03266 19.0601 3.00021 16.0837 3 13.0179V5.49209C6.16334 3.8546 9.67317 3 13.235 3C16.7967 3 20.3066 3.8546 23.4699 5.49209" stroke="#7D7D7D" stroke-width="2.5" stroke-linecap="round" stroke-linejoin="round"/>
<path d="M19.8229 32.8716C19.0153 33.0541 18.1759 33.0426 17.3736 32.838C16.5713 32.6333 15.8289 32.2414 15.2073 31.6942C13.0478 29.832 11.4487 27.4056 10.5888 24.6863C9.72886 21.9671 9.64201 19.0621 10.3379 16.2963L12.0226 9.55541C15.6815 8.62714 19.5136 8.62211 23.175 9.54077C26.8363 10.4594 30.2124 12.273 33.0002 14.8189L31.3156 21.5367C30.6364 24.305 29.2025 26.8304 27.1733 28.8317C25.1442 30.8329 22.5996 32.2315 19.8229 32.8716Z" stroke="#7D7D7D" stroke-width="2.5" stroke-linecap="round" stroke-linejoin="round"/>
<path d="M14.7949 16.8733C15.086 16.5686 15.455 16.3494 15.8618 16.2395C16.2687 16.1296 16.6978 16.1332 17.1027 16.25C17.499 16.3433 17.8636 16.5398 18.1595 16.8195C18.4553 17.0993 18.672 17.4523 18.7874 17.8429M23.9337 19.1588C24.2155 18.8558 24.5735 18.6342 24.9703 18.5172C25.3671 18.4001 25.788 18.3919 26.189 18.4933C26.5901 18.5948 26.9565 18.8023 27.2499 19.094C27.5433 19.3857 27.753 19.7509 27.8569 20.1514" stroke="#7D7D7D" stroke-width="2.5" stroke-linecap="round" stroke-linejoin="round"/>
</svg>
