<svg width="36" height="36" viewBox="0 0 36 36" fill="none" xmlns="http://www.w3.org/2000/svg">
<path d="M34 18.5312L30.5618 14.6701L31.0409 9.56339L25.9541 8.42857L23.2909 4L18.5 6.02054L13.7091 4L11.0459 8.41473L5.95909 9.53571L6.43818 14.6562L3 18.5312L6.43818 22.3924L5.95909 27.5129L11.0459 28.6478L13.7091 33.0625L18.5 31.0281L23.2909 33.0487L25.9541 28.6339L31.0409 27.4991L30.5618 22.3924L34 18.5312Z" fill="white"/>
<path d="M32.0625 18.5312L29.0541 15.1849L29.4733 10.7591L25.0223 9.77559L22.692 5.9375L18.5 7.68863L14.308 5.9375L11.9777 9.7636L7.5267 10.7351L7.94591 15.1729L4.9375 18.5312L7.94591 21.8776L7.5267 26.3154L11.9777 27.2989L14.308 31.125L18.5 29.3619L22.692 31.113L25.0223 27.2869L29.4733 26.3034L29.0541 21.8776L32.0625 18.5312ZM16.1451 24.1924L11.4598 19.6227L13.2846 17.8476L16.1451 20.6422L23.3578 13.6017L25.1826 15.3768L16.1451 24.1924Z" fill="#3DAB13"/>
</svg>
