<svg width="32" height="32" viewBox="0 0 32 32" fill="none" xmlns="http://www.w3.org/2000/svg">
<path d="M23.5826 17.2247C23.5476 13.707 26.4511 12.0199 26.5809 11.9347C24.9491 9.54879 22.4068 9.22141 21.502 9.18415C19.3402 8.96459 17.2817 10.4575 16.185 10.4575C15.0905 10.4575 13.396 9.21633 11.6034 9.24794C9.24513 9.28293 7.07145 10.6195 5.8579 12.7306C3.40878 16.9791 5.23137 23.2755 7.61784 26.7237C8.78454 28.4091 10.1759 30.3056 12.0013 30.2362C13.7607 30.1668 14.4245 29.0983 16.5513 29.0983C18.6781 29.0983 19.2753 30.2362 21.1363 30.2006C23.0283 30.1662 24.2277 28.483 25.3848 26.7908C26.7243 24.8328 27.2757 22.9368 27.3084 22.8409C27.2672 22.8217 23.6204 21.4247 23.5826 17.2247Z" fill="#070707"/>
<path d="M20.0835 6.90245C21.0515 5.72728 21.7074 4.09435 21.529 2.46875C20.132 2.52519 18.441 3.39726 17.4379 4.5713C16.5393 5.61327 15.7536 7.27216 15.9642 8.86841C17.5226 8.9892 19.1121 8.07537 20.0835 6.90245Z" fill="#070707"/>
</svg>
