<svg width="80" height="27" viewBox="0 0 80 27" fill="none" xmlns="http://www.w3.org/2000/svg">
<g clip-path="url(#clip0_3494_7584)">
<path d="M34.0414 13.8463C34.0414 17.594 31.1031 20.3556 27.4972 20.3556C23.8914 20.3556 20.9531 17.594 20.9531 13.8463C20.9531 10.0721 23.8914 7.33691 27.4972 7.33691C31.1031 7.33691 34.0414 10.0721 34.0414 13.8463ZM31.1767 13.8463C31.1767 11.5043 29.4737 9.90191 27.4972 9.90191C25.5208 9.90191 23.8178 11.5043 23.8178 13.8463C23.8178 16.1647 25.5208 17.7906 27.4972 17.7906C29.4737 17.7906 31.1767 16.1618 31.1767 13.8463Z" fill="#EA4335"/>
<path d="M48.1664 13.8463C48.1664 17.594 45.2281 20.3556 41.6222 20.3556C38.0164 20.3556 35.0781 17.594 35.0781 13.8463C35.0781 10.0751 38.0164 7.33691 41.6222 7.33691C45.2281 7.33691 48.1664 10.0721 48.1664 13.8463ZM45.3017 13.8463C45.3017 11.5043 43.5987 9.90191 41.6222 9.90191C39.6458 9.90191 37.9428 11.5043 37.9428 13.8463C37.9428 16.1647 39.6458 17.7906 41.6222 17.7906C43.5987 17.7906 45.3017 16.1618 45.3017 13.8463Z" fill="#FBBC05"/>
<path d="M61.6934 7.73017V19.4165C61.6934 24.2237 58.8522 26.187 55.4934 26.187C52.3316 26.187 50.4287 24.0769 49.711 22.3513L52.2052 21.3153C52.6493 22.3747 53.7375 23.625 55.4904 23.625C57.6404 23.625 58.9728 22.3014 58.9728 19.8097V18.8735H58.8728C58.2316 19.663 56.9963 20.3527 55.4375 20.3527C52.1757 20.3527 49.1875 17.5177 49.1875 13.8697C49.1875 10.1954 52.1757 7.33691 55.4375 7.33691C56.9934 7.33691 58.2287 8.02659 58.8728 8.79257H58.9728V7.73311H61.6934V7.73017ZM59.1757 13.8697C59.1757 11.5777 57.6434 9.90191 55.6934 9.90191C53.7169 9.90191 52.061 11.5777 52.061 13.8697C52.061 16.1383 53.7169 17.7906 55.6934 17.7906C57.6434 17.7906 59.1757 16.1383 59.1757 13.8697Z" fill="#378FDF"/>
<path d="M66.1769 0.880859V19.9569H63.3828V0.880859H66.1769Z" fill="#34A853"/>
<path d="M77.0603 15.9887L79.2838 17.4678C78.5662 18.5272 76.8368 20.3527 73.8485 20.3527C70.1426 20.3527 67.375 17.4942 67.375 13.8433C67.375 9.97235 70.1662 7.33398 73.5279 7.33398C76.9132 7.33398 78.5691 10.0222 79.1103 11.475L79.4074 12.2145L70.6868 15.8184C71.3544 17.1244 72.3927 17.7906 73.8485 17.7906C75.3074 17.7906 76.3191 17.0745 77.0603 15.9887ZM70.2162 13.6467L76.0456 11.2314C75.725 10.4184 74.7603 9.85203 73.625 9.85203C72.1691 9.85203 70.1426 11.1345 70.2162 13.6467Z" fill="#EA4335"/>
<path d="M10.3829 12.1527V9.39107H19.7094C19.8006 9.87237 19.8476 10.4417 19.8476 11.058C19.8476 13.13 19.28 15.692 17.4506 17.5175C15.6711 19.3664 13.3976 20.3525 10.3858 20.3525C4.80349 20.3525 0.109375 15.8153 0.109375 10.2451C0.109375 4.67487 4.80349 0.137695 10.3858 0.137695C13.4741 0.137695 15.6741 1.34683 17.327 2.9228L15.3741 4.8715C14.1888 3.76215 12.5829 2.89933 10.3829 2.89933C6.30643 2.89933 3.1182 6.17748 3.1182 10.2451C3.1182 14.3127 6.30643 17.5908 10.3829 17.5908C13.027 17.5908 14.5329 16.5314 15.4976 15.5688C16.28 14.7881 16.7947 13.6729 16.9976 12.1498L10.3829 12.1527Z" fill="#378FDF"/>
</g>
<defs>
<clipPath id="clip0_3494_7584">
<rect width="80" height="27" fill="white"/>
</clipPath>
</defs>
</svg>
