
<svg width="63" height="92" viewBox="0 0 63 92" fill="none" xmlns="http://www.w3.org/2000/svg">
<path d="M44.6237 14.0381L51.2235 29.307C51.6495 30.6696 51.5676 32.0918 51.0701 33.3487C50.4966 34.7947 49.3736 36.0203 47.832 36.686L47.7441 36.7247C44.8873 37.9592 41.606 36.8319 40.0808 34.2049L34.3568 20.9629C33.1414 18.1513 30.9013 16.0977 28.2634 15.0523C25.6241 14.0069 22.5871 13.9667 19.775 15.1818C14.1507 17.6122 11.5621 24.1394 13.9929 29.7626L19.7273 43.027C20.1205 44.3598 20.0311 45.7448 19.5441 46.9719C18.9721 48.4179 17.8461 49.6435 16.306 50.3092L16.2181 50.3479C13.33 51.5959 10.0056 50.4298 8.50419 47.7388L1.9148 32.4939C-3.18215 20.7023 2.24695 7.01058 14.0405 1.91452C19.9373 -0.633508 26.3092 -0.550111 31.8441 1.642C37.3774 3.83709 42.0767 8.14088 44.6252 14.0366L44.6237 14.0381Z" fill="white"/>
<path d="M60.1143 74.3743L52.0935 88.9477C51.2788 90.1197 50.1036 90.9268 48.8048 91.3036C47.3124 91.737 45.6546 91.6 44.183 90.7913L44.0981 90.7452C41.3724 89.2455 40.2508 85.9618 41.3932 83.1472L48.349 70.5069C48.918 69.4749 49.3053 68.3907 49.5198 67.2917C49.8638 65.5374 49.7715 63.7459 49.2844 62.0705C48.4935 59.3438 46.663 56.9209 43.979 55.4436C43.3564 55.1025 42.7174 54.8255 42.068 54.6141C37.8305 53.2276 33.1506 54.5366 30.2446 57.8978C27.3253 56.9462 24.814 54.7928 23.4988 51.7533L21.9453 48.1599C27.0586 42.0839 34.9037 39.1115 42.6176 40.0735C45.4595 40.4279 48.285 41.317 50.9467 42.7808C53.6798 44.2849 55.9915 46.2596 57.8384 48.5456C59.7926 50.967 61.2225 53.7399 62.0745 56.6796C63.7337 62.3952 63.2109 68.7451 60.1128 74.3728L60.1143 74.3743Z" fill="white"/>
<path d="M30.2465 57.8995C29.746 58.4788 29.2977 59.1177 28.9134 59.8161L23.395 69.8429L21.9472 72.4758C21.1354 73.6032 19.9856 74.3835 18.718 74.7499C17.2256 75.1832 15.5663 75.0462 14.0962 74.2376L14.0113 74.1914C11.2558 72.6739 10.1402 69.3321 11.3452 66.4982L14.3837 60.9777L19.3526 51.9486C20.1077 50.5786 20.9776 49.3142 21.9502 48.1631L23.5037 51.7565C24.8189 54.796 27.3316 56.9494 30.2495 57.901L30.2465 57.8995Z" fill="white"/>
<path d="M55.9424 40.2225L51.2238 29.3066C51.6498 30.6693 51.5693 32.0915 51.0719 33.3483C50.4969 34.7959 49.3739 36.02 47.8338 36.6871L47.7444 36.7244C44.8891 37.9589 41.6063 36.8331 40.0811 34.2046L42.6191 40.0751C45.461 40.4295 48.2866 41.3186 50.9482 42.7825C53.6814 44.2866 55.9931 46.2612 57.84 48.5472C57.7313 45.7579 57.1176 42.9388 55.9424 40.2225ZM43.979 55.4452C43.3564 55.1041 42.7175 54.8271 42.0681 54.6157C41.0105 55.8398 39.667 56.8495 38.0822 57.5345C35.4995 58.6499 32.7246 58.708 30.2447 57.8994C27.3253 56.9478 24.8141 54.7944 23.4989 51.7549L21.9454 48.1615L19.7246 43.0267C20.1178 44.3595 20.0299 45.7445 19.5414 46.9731C18.9694 48.4191 17.8434 49.6447 16.3033 50.3104L16.2154 50.3491C13.3274 51.5971 10.0029 50.4295 8.5 47.74L13.2305 58.6782C13.5746 59.4749 13.9574 60.2404 14.3774 60.9776C16.5595 64.8123 19.7157 67.8294 23.3917 69.8428C29.4687 73.1712 36.9622 73.7624 43.8167 70.8018C45.9302 69.889 47.8382 68.7006 49.5184 67.2933C49.8624 65.539 49.7701 63.7475 49.283 62.0721C48.4921 59.3454 46.6616 56.9225 43.9775 55.4452H43.979Z" fill="#B6D7FC"/>
</svg>
