<svg width="284" height="303" viewBox="0 0 284 303" fill="none" xmlns="http://www.w3.org/2000/svg">
<g clip-path="url(#clip0_1331_7471)">
<path d="M186.556 123.111C185.247 126.411 182.684 129.208 179.165 130.727L178.965 130.816C172.445 133.633 164.956 131.06 161.475 125.065L170.109 145.036C175.657 157.866 169.749 172.763 156.916 178.31C144.08 183.857 129.181 177.95 123.633 165.119L115.022 145.199C115.92 148.241 115.716 151.402 114.604 154.203C113.299 157.503 110.729 160.3 107.214 161.819L107.014 161.908C100.422 164.756 92.8348 162.095 89.4082 155.953L100.201 180.92C111.834 207.832 143.088 220.221 170.007 208.587C196.924 196.956 209.314 165.707 197.682 138.796L186.912 113.883C187.885 116.993 187.698 120.239 186.562 123.107L186.556 123.111Z" fill="#F3BFD5"/>
<path d="M186.556 123.111C185.247 126.411 182.684 129.208 179.165 130.727L178.965 130.816C172.445 133.633 164.956 131.06 161.475 125.065L170.109 145.036C175.657 157.866 169.749 172.763 156.916 178.31C144.08 183.857 129.181 177.95 123.633 165.119L115.022 145.199C115.92 148.241 115.716 151.402 114.604 154.203C113.299 157.503 110.729 160.3 107.214 161.819L107.014 161.908C100.422 164.756 92.8348 162.095 89.4082 155.953L100.201 180.92C111.834 207.832 143.088 220.221 170.007 208.587C196.924 196.956 209.314 165.707 197.682 138.796L186.912 113.883C187.885 116.993 187.698 120.239 186.562 123.107L186.556 123.111Z" fill="#F3BFD5"/>
<path d="M186.556 123.111C185.247 126.411 182.684 129.208 179.165 130.727L178.965 130.816C172.445 133.633 164.956 131.06 161.475 125.065L170.109 145.036C175.657 157.866 169.749 172.763 156.916 178.31C144.08 183.857 129.181 177.95 123.633 165.119L115.022 145.199C115.92 148.241 115.716 151.402 114.604 154.203C113.299 157.503 110.729 160.3 107.214 161.819L107.014 161.908C100.422 164.756 92.8348 162.095 89.4082 155.953L100.201 180.92C111.834 207.832 143.088 220.221 170.007 208.587C196.924 196.956 209.314 165.707 197.682 138.796L186.912 113.883C187.885 116.993 187.698 120.239 186.562 123.107L186.556 123.111Z" fill="#F3BFD5"/>
<path d="M171.844 79.039L186.906 113.887C187.879 116.997 187.692 120.242 186.556 123.111C185.248 126.411 182.684 129.208 179.166 130.728L178.965 130.816C172.445 133.634 164.957 131.061 161.476 125.065L148.412 94.8433C145.638 88.4264 140.525 83.7395 134.505 81.3535C128.481 78.9676 121.55 78.8758 115.132 81.6492C102.296 87.196 96.3879 102.093 101.936 114.927L115.023 145.2C115.921 148.242 115.717 151.402 114.605 154.203C113.3 157.503 110.73 160.3 107.215 161.82L107.014 161.908C100.423 164.756 92.8355 162.095 89.4089 155.953L74.3701 121.16C62.7375 94.2485 75.1282 63.0001 102.044 51.3695C115.503 45.5542 130.045 45.7445 142.677 50.7475C155.306 55.7573 166.031 65.5798 171.847 79.0356L171.844 79.039Z" fill="#3364F6"/>
<path d="M207.198 216.745L188.893 250.006C187.033 252.68 184.351 254.522 181.387 255.382C177.981 256.371 174.197 256.059 170.839 254.213L170.645 254.108C164.424 250.685 161.864 243.191 164.472 236.767L180.347 207.918C181.645 205.563 182.529 203.089 183.019 200.58C183.804 196.577 183.593 192.488 182.481 188.664C180.676 182.441 176.499 176.911 170.373 173.54C168.952 172.761 167.494 172.129 166.012 171.647C156.34 168.482 145.659 171.47 139.027 179.141C132.364 176.969 126.633 172.054 123.631 165.118L120.086 156.916C131.756 143.049 149.661 136.265 167.266 138.461C173.752 139.27 180.2 141.299 186.275 144.64C192.513 148.073 197.789 152.579 202.004 157.797C206.464 163.323 209.727 169.651 211.672 176.361C215.459 189.405 214.266 203.898 207.195 216.742L207.198 216.745Z" fill="#F4BD4B"/>
<path d="M139.029 179.143C137.887 180.465 136.864 181.923 135.987 183.517L123.392 206.401L120.088 212.41C118.235 214.983 115.611 216.764 112.718 217.6C109.312 218.589 105.525 218.277 102.17 216.431L101.976 216.326C95.6869 212.862 93.1408 205.236 95.8909 198.768L102.826 186.168L114.166 165.562C115.889 162.435 117.875 159.549 120.094 156.922L123.64 165.123C126.642 172.06 132.376 176.975 139.036 179.147L139.029 179.143Z" fill="#F37253"/>
<path d="M197.675 138.8L186.906 113.887C187.878 116.997 187.695 120.242 186.559 123.111C185.247 126.415 182.684 129.208 179.169 130.731L178.965 130.816C172.449 133.634 164.956 131.064 161.475 125.065L167.268 138.463C173.754 139.272 180.203 141.301 186.277 144.642C192.515 148.075 197.791 152.582 202.006 157.799C201.758 151.433 200.357 144.999 197.675 138.8ZM170.372 173.542C168.951 172.764 167.492 172.132 166.01 171.649C163.597 174.443 160.53 176.747 156.913 178.311C151.019 180.856 144.686 180.989 139.026 179.143C132.363 176.972 126.632 172.057 123.63 165.12L120.085 156.919L115.016 145.2C115.914 148.242 115.713 151.402 114.598 154.206C113.293 157.507 110.723 160.304 107.208 161.823L107.007 161.912C100.416 164.76 92.8284 162.095 89.3984 155.957L100.195 180.921C100.98 182.739 101.854 184.486 102.812 186.169C107.792 194.92 114.996 201.806 123.385 206.402C137.255 213.998 154.357 215.347 170.001 208.59C174.825 206.507 179.179 203.795 183.014 200.583C183.799 196.579 183.588 192.49 182.477 188.667C180.672 182.444 176.494 176.914 170.368 173.542H170.372Z" fill="#489AF7"/>
</g>
<defs>
<clipPath id="clip0_1331_7471">
<rect width="284" height="303" fill="white"/>
</clipPath>
</defs>
</svg>
