<svg width="1055" height="303" viewBox="0 0 1055 303" fill="none" xmlns="http://www.w3.org/2000/svg">
<path d="M186.556 122.111C185.247 125.411 182.684 128.208 179.165 129.727L178.965 129.816C172.445 132.633 164.956 130.06 161.475 124.065L170.109 144.036C175.657 156.866 169.749 171.763 156.916 177.31C144.08 182.857 129.181 176.95 123.633 164.119L115.022 144.199C115.92 147.241 115.716 150.402 114.604 153.203C113.299 156.503 110.729 159.3 107.214 160.819L107.014 160.908C100.422 163.756 92.8348 161.095 89.4082 154.953L100.201 179.92C111.834 206.832 143.088 219.221 170.007 207.587C196.924 195.956 209.314 164.707 197.682 137.796L186.912 112.883C187.885 115.993 187.698 119.239 186.562 122.107L186.556 122.111Z" fill="#F3BFD5"/>
<path d="M186.556 122.111C185.247 125.411 182.684 128.208 179.165 129.727L178.965 129.816C172.445 132.633 164.956 130.06 161.475 124.065L170.109 144.036C175.657 156.866 169.749 171.763 156.916 177.31C144.08 182.857 129.181 176.95 123.633 164.119L115.022 144.199C115.92 147.241 115.716 150.402 114.604 153.203C113.299 156.503 110.729 159.3 107.214 160.819L107.014 160.908C100.422 163.756 92.8348 161.095 89.4082 154.953L100.201 179.92C111.834 206.832 143.088 219.221 170.007 207.587C196.924 195.956 209.314 164.707 197.682 137.796L186.912 112.883C187.885 115.993 187.698 119.239 186.562 122.107L186.556 122.111Z" fill="#F3BFD5"/>
<path d="M186.556 122.111C185.247 125.411 182.684 128.208 179.165 129.727L178.965 129.816C172.445 132.633 164.956 130.06 161.475 124.065L170.109 144.036C175.657 156.866 169.749 171.763 156.916 177.31C144.08 182.857 129.181 176.95 123.633 164.119L115.022 144.199C115.92 147.241 115.716 150.402 114.604 153.203C113.299 156.503 110.729 159.3 107.214 160.819L107.014 160.908C100.422 163.756 92.8348 161.095 89.4082 154.953L100.201 179.92C111.834 206.832 143.088 219.221 170.007 207.587C196.924 195.956 209.314 164.707 197.682 137.796L186.912 112.883C187.885 115.993 187.698 119.239 186.562 122.107L186.556 122.111Z" fill="#F3BFD5"/>
<path d="M171.844 78.039L186.906 112.887C187.879 115.997 187.692 119.242 186.556 122.111C185.248 125.411 182.684 128.208 179.166 129.728L178.965 129.816C172.445 132.634 164.957 130.061 161.476 124.065L148.412 93.8433C145.638 87.4264 140.525 82.7395 134.505 80.3535C128.481 77.9676 121.55 77.8758 115.132 80.6492C102.296 86.196 96.3879 101.093 101.936 113.927L115.023 144.2C115.921 147.242 115.717 150.402 114.605 153.203C113.3 156.503 110.73 159.3 107.215 160.82L107.014 160.908C100.423 163.756 92.8355 161.095 89.4089 154.953L74.3701 120.16C62.7375 93.2485 75.1282 62.0001 102.044 50.3695C115.503 44.5542 130.045 44.7445 142.677 49.7475C155.306 54.7573 166.031 64.5798 171.847 78.0356L171.844 78.039Z" fill="#3364F6"/>
<path d="M207.198 215.745L188.893 249.006C187.033 251.68 184.351 253.522 181.387 254.382C177.981 255.371 174.197 255.059 170.839 253.213L170.645 253.108C164.424 249.685 161.864 242.191 164.472 235.767L180.347 206.918C181.645 204.563 182.529 202.089 183.019 199.58C183.804 195.577 183.593 191.488 182.481 187.664C180.676 181.441 176.499 175.911 170.373 172.54C168.952 171.761 167.494 171.129 166.012 170.647C156.34 167.482 145.659 170.47 139.027 178.141C132.364 175.969 126.633 171.054 123.631 164.118L120.086 155.916C131.756 142.049 149.661 135.265 167.266 137.461C173.752 138.27 180.2 140.299 186.275 143.64C192.513 147.073 197.789 151.579 202.004 156.797C206.464 162.323 209.727 168.651 211.672 175.361C215.459 188.405 214.266 202.898 207.195 215.742L207.198 215.745Z" fill="#F4BD4B"/>
<path d="M139.029 178.143C137.887 179.465 136.864 180.923 135.987 182.517L123.392 205.401L120.088 211.41C118.235 213.983 115.611 215.764 112.718 216.6C109.312 217.589 105.525 217.277 102.17 215.431L101.976 215.326C95.6869 211.862 93.1408 204.236 95.8909 197.768L102.826 185.168L114.166 164.562C115.889 161.435 117.875 158.549 120.094 155.922L123.64 164.123C126.642 171.06 132.376 175.975 139.036 178.147L139.029 178.143Z" fill="#F37253"/>
<path d="M197.675 137.8L186.906 112.887C187.878 115.997 187.695 119.242 186.559 122.111C185.247 125.415 182.684 128.208 179.169 129.731L178.965 129.816C172.449 132.634 164.956 130.064 161.475 124.065L167.268 137.463C173.754 138.272 180.203 140.301 186.277 143.642C192.515 147.075 197.791 151.582 202.006 156.799C201.758 150.433 200.357 143.999 197.675 137.8ZM170.372 172.542C168.951 171.764 167.492 171.132 166.01 170.649C163.597 173.443 160.53 175.747 156.913 177.311C151.019 179.856 144.686 179.989 139.026 178.143C132.363 175.972 126.632 171.057 123.63 164.12L120.085 155.919L115.016 144.2C115.914 147.242 115.713 150.402 114.598 153.206C113.293 156.507 110.723 159.304 107.208 160.823L107.007 160.912C100.416 163.76 92.8284 161.095 89.3984 154.957L100.195 179.921C100.98 181.739 101.854 183.486 102.812 185.169C107.792 193.92 114.996 200.806 123.385 205.402C137.255 212.998 154.357 214.347 170.001 207.59C174.825 205.507 179.179 202.795 183.014 199.583C183.799 195.579 183.588 191.49 182.477 187.667C180.672 181.444 176.494 175.914 170.368 172.542H170.372Z" fill="#489AF7"/>
<path d="M938.826 202.786C937.638 203.326 936.018 204.028 933.966 204.892C931.913 205.756 929.537 206.513 926.837 207.161C924.136 207.809 921.274 208.133 918.249 208.133C914.793 208.133 911.606 207.539 908.69 206.35C905.774 205.054 903.451 203.11 901.723 200.518C899.995 197.817 899.131 194.469 899.131 190.472V133.602H887.627V122.422H899.131V94.2305H913.389V122.422H932.345V133.602H913.389V186.098C913.605 189.122 914.631 191.39 916.467 192.903C918.303 194.307 920.464 195.009 922.948 195.009C925.756 195.009 928.349 194.523 930.725 193.551C933.101 192.579 934.668 191.876 935.424 191.444L938.826 202.786Z" fill="#1E1E1E"/>
<path d="M849.738 207V122.423H863.996V207H849.738ZM849.738 106.545V88.7227H863.996V106.545H849.738Z" fill="#1E1E1E"/>
<path d="M784.213 208.62C777.624 208.62 771.629 207 766.229 203.759C760.828 200.519 756.561 196.306 753.429 191.121V207H740.791V88.7227H755.049V139.274C758.614 133.765 762.988 129.336 768.173 125.988C773.358 122.64 779.407 120.965 786.32 120.965C792.152 120.965 797.391 122.207 802.036 124.692C806.68 127.068 810.623 130.363 813.863 134.575C817.212 138.68 819.75 143.378 821.479 148.671C823.315 153.856 824.233 159.311 824.233 165.036C824.233 170.976 823.207 176.593 821.155 181.886C819.21 187.071 816.402 191.715 812.729 195.82C809.057 199.817 804.79 202.949 799.93 205.217C795.177 207.486 789.938 208.62 784.213 208.62ZM780.649 196.306C784.861 196.306 788.75 195.442 792.314 193.714C795.879 191.985 798.957 189.663 801.55 186.747C804.142 183.83 806.14 180.482 807.545 176.701C808.949 172.921 809.651 169.032 809.651 165.036C809.651 159.527 808.463 154.342 806.086 149.481C803.818 144.621 800.578 140.732 796.365 137.816C792.26 134.791 787.454 133.279 781.945 133.279C777.948 133.279 774.222 134.197 770.765 136.033C767.309 137.87 764.23 140.3 761.53 143.324C758.938 146.241 756.777 149.481 755.049 153.046V177.511C755.589 180.212 756.723 182.696 758.452 184.964C760.18 187.233 762.286 189.231 764.77 190.959C767.255 192.579 769.847 193.876 772.548 194.848C775.356 195.82 778.056 196.306 780.649 196.306Z" fill="#1E1E1E"/>
<path d="M718.648 134.899C711.519 135.007 705.2 136.844 699.691 140.408C694.291 143.865 690.456 148.671 688.188 154.828V207H673.93V122.423H687.216V142.028C690.132 136.195 693.967 131.497 698.719 127.932C703.58 124.26 708.657 122.207 713.949 121.775C715.03 121.775 715.948 121.775 716.704 121.775C717.46 121.775 718.108 121.829 718.648 121.937V134.899Z" fill="#1E1E1E"/>
<path d="M594.452 207.809C586.351 207.809 579.005 206.189 572.417 202.948C565.828 199.708 560.103 195.333 555.242 189.824C550.489 184.208 546.817 177.943 544.224 171.03C541.632 164.009 540.336 156.826 540.336 149.481C540.336 141.812 541.686 134.521 544.387 127.608C547.195 120.587 551.029 114.376 555.89 108.975C560.859 103.466 566.638 99.1455 573.227 96.013C579.816 92.7726 586.999 91.1523 594.776 91.1523C602.877 91.1523 610.222 92.8266 616.811 96.1751C623.4 99.5235 629.071 104.006 633.823 109.623C638.576 115.24 642.249 121.505 644.841 128.418C647.433 135.331 648.729 142.406 648.729 149.643C648.729 157.312 647.379 164.657 644.679 171.678C641.978 178.591 638.144 184.802 633.175 190.311C628.315 195.711 622.59 199.978 616.001 203.11C609.412 206.243 602.229 207.809 594.452 207.809ZM555.08 149.481C555.08 155.314 555.998 160.984 557.834 166.493C559.779 171.894 562.479 176.701 565.936 180.913C569.392 185.126 573.551 188.474 578.411 190.959C583.272 193.443 588.673 194.685 594.614 194.685C600.771 194.685 606.279 193.389 611.14 190.797C616.001 188.204 620.105 184.748 623.454 180.427C626.91 176.106 629.503 171.246 631.231 165.845C633.067 160.444 633.985 154.989 633.985 149.481C633.985 143.648 633.013 138.031 631.069 132.63C629.233 127.23 626.532 122.423 622.968 118.21C619.511 113.89 615.353 110.541 610.492 108.165C605.739 105.68 600.447 104.438 594.614 104.438C588.457 104.438 582.948 105.734 578.087 108.327C573.227 110.811 569.068 114.214 565.612 118.534C562.263 122.855 559.671 127.716 557.834 133.116C555.998 138.409 555.08 143.864 555.08 149.481Z" fill="#1E1E1E"/>
<path d="M456.826 235.516C458.554 235.624 460.066 235.624 461.362 235.516C462.767 235.516 463.793 235.3 464.441 234.868C465.413 234.544 466.385 233.68 467.357 232.276C468.437 230.98 469.842 228.333 471.57 224.337C473.298 220.448 475.728 214.669 478.861 207L441.271 122.748H449.859L483.235 198.413L514.182 122.748H522.445L476.268 233.572C475.62 235.3 474.702 236.812 473.514 238.109C472.434 239.513 471.084 240.593 469.464 241.349C467.843 242.213 465.899 242.699 463.631 242.807C462.659 242.915 461.632 242.969 460.552 242.969C459.472 243.077 458.23 243.077 456.826 242.969V235.516Z" fill="#1E1E1E"/>
<path d="M420.424 206.999H412.323V160.013C412.323 149.319 410.649 141.434 407.3 136.357C404.06 131.28 399.037 128.742 392.232 128.742C385.319 128.742 379.162 131.226 373.762 136.195C368.469 141.056 364.742 147.321 362.582 154.99V206.999H354.481V160.013C354.481 149.211 352.861 141.326 349.62 136.357C346.38 131.28 341.357 128.742 334.552 128.742C327.639 128.742 321.482 131.172 316.081 136.033C310.789 140.786 307.008 147.051 304.74 154.828V206.999H296.639V122.747H304.254V142.838C307.818 135.925 312.409 130.632 318.026 126.96C323.643 123.179 329.799 121.289 336.496 121.289C343.517 121.289 349.242 123.395 353.671 127.608C358.207 131.713 360.908 137.221 361.772 144.134C365.769 136.573 370.521 130.902 376.03 127.122C381.539 123.233 387.804 121.289 394.825 121.289C399.469 121.289 403.358 122.153 406.49 123.881C409.731 125.502 412.377 127.932 414.43 131.172C416.59 134.305 418.102 138.193 418.966 142.838C419.938 147.483 420.424 152.722 420.424 158.554V206.999Z" fill="#1E1E1E"/>
</svg>
