<svg
  width="16"
 height="15"
 viewBox="0 0 16 15"
 fill="none"
 xmlns="http://www.w3.org/2000/svg"
 >
  <path
    d="M1.76562 4.44531C1.51562 4.19531 1.32552 3.91146 1.19531 3.59375C1.0651 3.27604 1 2.94271 1 2.59375C1 2.22396 1.06771 1.88281 1.20312 1.57031C1.33854 1.25781 1.52344 0.984375 1.75781 0.75C1.99219 0.515625 2.27083 0.333333 2.59375 0.203125C2.91667 0.0729167 3.25781 0.00520833 3.61719 0C3.96094 0 4.29427 0.0598958 4.61719 0.179688C4.9401 0.299479 5.22656 0.484375 5.47656 0.734375L8.23438 3.49219L7.52344 4.20312L6 2.67969L3.71094 4.96875L5.23438 6.49219L4.52344 7.20312L1.76562 4.44531ZM3.625 0.984375C3.40104 0.984375 3.1901 1.02344 2.99219 1.10156C2.79427 1.17969 2.6224 1.29427 2.47656 1.44531C2.33073 1.59635 2.21615 1.76562 2.13281 1.95312C2.04948 2.14062 2.00521 2.35417 2 2.59375C2 2.79167 2.02604 2.96354 2.07812 3.10938C2.13021 3.25521 2.20573 3.39323 2.30469 3.52344C2.40365 3.65365 2.51042 3.77604 2.625 3.89062C2.73958 4.00521 2.86458 4.1276 3 4.25781L5.28906 1.96875C5.15365 1.83854 5.03125 1.71354 4.92188 1.59375C4.8125 1.47396 4.69271 1.36979 4.5625 1.28125C4.43229 1.19271 4.29688 1.11979 4.15625 1.0625C4.01562 1.00521 3.83854 0.979167 3.625 0.984375ZM16 14.9688L11.0547 13.7344L8.76562 11.4453L9.47656 10.7344L11.1719 12.4375C11.2552 12.1667 11.3698 11.9115 11.5156 11.6719C11.6615 11.4323 11.8359 11.2109 12.0391 11.0078C12.2422 10.8047 12.4609 10.6328 12.6953 10.4922C12.9297 10.3516 13.1875 10.2344 13.4688 10.1406L11.7656 8.44531L12.4766 7.73438L14.7656 10.0234L16 14.9688ZM14.625 13.5938L13.9844 11.0234C13.7396 11.0755 13.513 11.1589 13.3047 11.2734C13.0964 11.388 12.9062 11.5312 12.7344 11.7031C12.5625 11.875 12.4193 12.0651 12.3047 12.2734C12.1901 12.4818 12.1068 12.7083 12.0547 12.9531L14.625 13.5938ZM13.5 0.46875C13.776 0.46875 14.0339 0.520833 14.2734 0.625C14.513 0.729167 14.7266 0.872396 14.9141 1.05469C15.1016 1.23698 15.2448 1.44792 15.3438 1.6875C15.4427 1.92708 15.4948 2.1875 15.5 2.46875C15.5 2.73438 15.4505 2.98958 15.3516 3.23438C15.2526 3.47917 15.1068 3.69531 14.9141 3.88281L5.96094 12.8359C5.91406 13.1432 5.81771 13.4245 5.67188 13.6797C5.52604 13.9349 5.34375 14.1615 5.125 14.3594C4.90625 14.5573 4.65885 14.7057 4.38281 14.8047C4.10677 14.9036 3.8125 14.9583 3.5 14.9688H0V13.9688C0.0572917 13.9688 0.117188 13.9609 0.179688 13.9453C0.242188 13.9297 0.299479 13.9062 0.351562 13.875C0.481771 13.8073 0.588542 13.7214 0.671875 13.6172C0.755208 13.513 0.820312 13.3984 0.867188 13.2734C0.914062 13.1484 0.947917 13.0182 0.96875 12.8828C0.989583 12.7474 1 12.6094 1 12.4688C1 12.1615 1.05208 11.8698 1.15625 11.5938C1.26042 11.3177 1.41146 11.0677 1.60938 10.8438C1.80729 10.6198 2.03125 10.4375 2.28125 10.2969C2.53125 10.1562 2.8151 10.0599 3.13281 10.0078L12.0859 1.05469C12.2734 0.867188 12.4896 0.723958 12.7344 0.625C12.9792 0.526042 13.2344 0.473958 13.5 0.46875ZM3.5 13.9688C3.70833 13.9688 3.90365 13.9297 4.08594 13.8516C4.26823 13.7734 4.42708 13.6667 4.5625 13.5312C4.69792 13.3958 4.80469 13.237 4.88281 13.0547C4.96094 12.8724 5 12.6771 5 12.4688C5 12.2604 4.96094 12.0651 4.88281 11.8828C4.80469 11.7005 4.69792 11.5417 4.5625 11.4062C4.42708 11.2708 4.26823 11.1641 4.08594 11.0859C3.90365 11.0078 3.70833 10.9688 3.5 10.9688C3.29167 10.9688 3.09635 11.0078 2.91406 11.0859C2.73177 11.1641 2.57292 11.2708 2.4375 11.4062C2.30208 11.5417 2.19531 11.7005 2.11719 11.8828C2.03906 12.0651 2 12.2604 2 12.4688C2 13.0104 1.83333 13.5104 1.5 13.9688H3.5ZM7.54688 9.83594C7.38021 9.50781 7.1849 9.23177 6.96094 9.00781C6.73698 8.78385 6.46094 8.58854 6.13281 8.42188L4.40625 10.1484C4.72917 10.2734 5.01302 10.4583 5.25781 10.7031C5.5026 10.9479 5.6901 11.2344 5.82031 11.5625L7.54688 9.83594ZM14.2031 3.17188C14.3958 2.97917 14.4922 2.74479 14.4922 2.46875C14.4922 2.33333 14.4661 2.20573 14.4141 2.08594C14.362 1.96615 14.2917 1.86198 14.2031 1.77344C14.1146 1.6849 14.0078 1.61198 13.8828 1.55469C13.7578 1.4974 13.6302 1.47135 13.5 1.47656C13.224 1.47656 12.9896 1.57292 12.7969 1.76562L6.86719 7.6875C7.1849 7.875 7.45312 8.07812 7.67188 8.29688C7.89062 8.51562 8.09375 8.78385 8.28125 9.10156L14.2031 3.17188Z"
    fill="#7D7D7D"
    />
  </svg>
