<svg
			fill="none"
			height="16"
			viewBox="0 0 16 16"
			width="16"
			xmlns="http://www.w3.org/2000/svg"
		>
			<path
				d="M15.9942 4.65366L14.9236 1.3726C14.8864 1.25941 14.8139 1.16179 14.7172 1.09464C14.6206 1.0275 14.505 0.994519 14.3883 1.00074H2.61169C2.49496 0.994519 2.37944 1.0275 2.28278 1.09464C2.18612 1.16179 2.11363 1.25941 2.07639 1.3726L1.00578 4.65366C0.998072 4.71173 0.998072 4.77059 1.00578 4.82865V8.10972C1.00578 8.25475 1.06218 8.39384 1.16257 8.49639C1.26296 8.59895 1.39911 8.65656 1.54109 8.65656H2.07639V14.125H3.14699V8.65656H6.3588V14.125H14.9236V8.65656H15.4589C15.6009 8.65656 15.737 8.59895 15.8374 8.49639C15.9378 8.39384 15.9942 8.25475 15.9942 8.10972V4.82865C16.0019 4.77059 16.0019 4.71173 15.9942 4.65366ZM13.853 13.0313H7.4294V8.65656H13.853V13.0313ZM14.9236 7.56287H12.7824V5.3755H11.7118V7.56287H9.0353V5.3755H7.9647V7.56287H5.28819V5.3755H4.21759V7.56287H2.07639V4.91615L2.9971 2.09443H14.0029L14.9236 4.91615V7.56287Z"
				fill="currentColor"
			/>
		</svg>
