<svg width="48" height="48" viewBox="0 0 48 48" fill="none" xmlns="http://www.w3.org/2000/svg">
<rect width="48" height="48" rx="8" fill="#00C3A5"/>
<path d="M32 27.5C30.8 27.5 29.5 27.3 28.4 26.9H28.1C27.8 26.9 27.6 27 27.4 27.2L25.2 29.4C22.4 27.9 20 25.6 18.6 22.8L20.8 20.6C21.1 20.3 21.2 19.9 21 19.6C20.7 18.5 20.5 17.2 20.5 16C20.5 15.5 20 15 19.5 15H16C15.5 15 15 15.5 15 16C15 25.4 22.6 33 32 33C32.5 33 33 32.5 33 32V28.5C33 28 32.5 27.5 32 27.5ZM17 17H18.5C18.6 17.9 18.8 18.8 19 19.6L17.8 20.8C17.4 19.6 17.1 18.3 17 17ZM31 31C29.7 30.9 28.4 30.6 27.2 30.2L28.4 29C29.2 29.2 30.1 29.4 31 29.4V31Z" fill="white"/>
</svg>
