<svg width="48" height="48" viewBox="0 0 48 48" fill="none" xmlns="http://www.w3.org/2000/svg">
<rect width="48" height="48" rx="8" fill="#E74C3C"/>
<path d="M16.5108 27.4799L18.5108 25.8899C18.9908 25.5099 19.2708 24.9299 19.2708 24.3199V21.7199C22.2908 20.7399 25.5608 20.7299 28.5908 21.7199V24.3299C28.5908 24.9399 28.8708 25.5199 29.3508 25.8999L31.3408 27.4799C32.1408 28.1099 33.2808 28.0499 34.0008 27.3299L35.2208 26.1099C36.0208 25.3099 36.0208 23.9799 35.1708 23.2299C28.7608 17.5699 19.1008 17.5699 12.6908 23.2299C11.8408 23.9799 11.8408 25.3099 12.6408 26.1099L13.8608 27.3299C14.5708 28.0499 15.7108 28.1099 16.5108 27.4799Z" fill="white"/>
</svg>
